<svg fill="#000000" height="200px" width="200px" version="1.1" id="Layer_1" xmlns="http://www.w3.org/2000/svg" xmlns:xlink="http://www.w3.org/1999/xlink" 
	 viewBox="0 0 512 512" enable-background="new 0 0 512 512" xml:space="preserve">
<g>
	<g>
		<path d="M256,0C114.615,0,0,114.615,0,256s114.615,256,256,256s256-114.615,256-256S397.385,0,256,0z M256,480
			C132.288,480,32,379.712,32,256S132.288,32,256,32s224,100.288,224,224S379.712,480,256,480z"/>
	</g>
	<g>
		<path d="M256,96c-35.346,0-64,28.654-64,64s28.654,64,64,64s64-28.654,64-64S291.346,96,256,96z M256,192
			c-17.673,0-32-14.327-32-32s14.327-32,32-32s32,14.327,32,32S273.673,192,256,192z"/>
	</g>
	<g>
		<path d="M256,256c-61.75,0-112,50.25-112,112c0,17.673,14.327,32,32,32h160c17.673,0,32-14.327,32-32
			C368,306.25,317.75,256,256,256z M176,368c0-44.112,35.888-80,80-80s80,35.888,80,80H176z"/>
	</g>
</g>
</svg> 